HIERARCHY
ROOT Hips
{
	OFFSET 0.000000 71.427986 0.000000
	CHANNELS 6 Xposition Yposition Zposition Xrotation Yrotation Zrotation
	JOINT Pelvis
	{
		OFFSET 0.000000 0.000000 0.000000
		CHANNELS 3 Xrotation Yrotation Zrotation
		JOINT LeftUpLeg
		{
			OFFSET 6.797100 -2.508499 -1.318700
			CHANNELS 3 Xrotation Yrotation Zrotation
			JOINT LeftLeg
			{
				OFFSET 0.069008 -29.241863 0.690200
				CHANNELS 3 Xrotation Yrotation Zrotation
				JOINT LeftFoot
				{
					OFFSET -0.069008 -29.568123 -0.266800
					CHANNELS 3 Xrotation Yrotation Zrotation
					JOINT LeftToeBase
					{
						OFFSET 3.145500 -8.631000 16.059900
						CHANNELS 3 Xrotation Yrotation Zrotation
						End Site
						{
							OFFSET 0.000000 18.501587 0.000000
						}
					}
				}
			}
			JOINT Left_ShortSleeve
			{
				OFFSET 0.265923 -10.480953 1.153800
				CHANNELS 3 Xrotation Yrotation Zrotation
				End Site
				{
					OFFSET 1.725763 19.823879 0.000000
				}
			}
		}
		JOINT RightUpLeg
		{
			OFFSET -6.797100 -2.508499 -1.318700
			CHANNELS 3 Xrotation Yrotation Zrotation
			JOINT RightLeg
			{
				OFFSET -0.082453 -29.241932 0.688000
				CHANNELS 3 Xrotation Yrotation Zrotation
				JOINT RightFoot
				{
					OFFSET 0.082453 -29.568058 -0.264600
					CHANNELS 3 Xrotation Yrotation Zrotation
					JOINT RightToeBase
					{
						OFFSET -3.115300 -8.682800 16.113400
						CHANNELS 3 Xrotation Yrotation Zrotation
						End Site
						{
							OFFSET 0.000000 18.567114 0.000000
						}
					}
				}
			}
			JOINT Right_ShortSleeve
			{
				OFFSET -0.265923 -10.480953 1.153800
				CHANNELS 3 Xrotation Yrotation Zrotation
				End Site
				{
					OFFSET -1.725766 19.823910 0.000000
				}
			}
		}
	}
	JOINT Spine
	{
		OFFSET 0.000000 13.368103 0.470500
		CHANNELS 3 Xrotation Yrotation Zrotation
		JOINT Spine1
		{
			OFFSET 0.147000 13.837402 0.538800
			CHANNELS 3 Xrotation Yrotation Zrotation
			JOINT Spine2
			{
				OFFSET 0.168000 16.242897 -1.435500
				CHANNELS 3 Xrotation Yrotation Zrotation
				JOINT Neck
				{
					OFFSET 0.217200 18.631500 -1.679100
					CHANNELS 3 Xrotation Yrotation Zrotation
					JOINT Head
					{
						OFFSET 0.000000 6.599396 1.385900
						CHANNELS 3 Xrotation Yrotation Zrotation
						JOINT Hat
						{
							OFFSET -0.532200 27.220596 -10.096100
							CHANNELS 3 Xrotation Yrotation Zrotation
							End Site
							{
								OFFSET 0.000000 22.029861 0.000000
							}
						}
						JOINT HairD
						{
							OFFSET -10.777400 17.437393 -1.325900
							CHANNELS 3 Xrotation Yrotation Zrotation
							JOINT HairD1
							{
								OFFSET -3.290299 -11.051193 1.062200
								CHANNELS 3 Xrotation Yrotation Zrotation
								End Site
								{
									OFFSET 0.000000 11.579437 0.000000
								}
							}
						}
						JOINT HairB
						{
							OFFSET -10.777400 17.437393 1.467900
							CHANNELS 3 Xrotation Yrotation Zrotation
							JOINT HairB1
							{
								OFFSET -1.561200 -12.956299 3.590200
								CHANNELS 3 Xrotation Yrotation Zrotation
								End Site
								{
									OFFSET 0.000000 13.534866 0.000000
								}
							}
						}
						JOINT HairA
						{
							OFFSET 9.713100 17.437393 1.467900
							CHANNELS 3 Xrotation Yrotation Zrotation
							JOINT HairA1
							{
								OFFSET 1.561200 -12.956299 3.590200
								CHANNELS 3 Xrotation Yrotation Zrotation
								End Site
								{
									OFFSET 0.000000 13.534866 0.000000
								}
							}
						}
						JOINT HairC
						{
							OFFSET 9.713100 17.437393 -1.325900
							CHANNELS 3 Xrotation Yrotation Zrotation
							JOINT HairC1
							{
								OFFSET 3.290300 -11.051193 1.062200
								CHANNELS 3 Xrotation Yrotation Zrotation
								End Site
								{
									OFFSET 0.000000 11.579437 0.000000
								}
							}
						}
					}
				}
				JOINT LeftShoulder
				{
					OFFSET 5.101800 15.108002 -2.763700
					CHANNELS 3 Xrotation Yrotation Zrotation
					JOINT LeftArm
					{
						OFFSET 9.825497 2.506317 -1.597400
						CHANNELS 3 Xrotation Yrotation Zrotation
						JOINT LeftForeArm
						{
							OFFSET 21.966244 0.000000 0.000000
							CHANNELS 3 Xrotation Yrotation Zrotation
							JOINT LeftHand
							{
								OFFSET 33.879036 0.000000 0.000000
								CHANNELS 3 Xrotation Yrotation Zrotation
								JOINT LeftHandThumb1
								{
									OFFSET 6.715286 -2.359680 3.363841
									CHANNELS 3 Xrotation Yrotation Zrotation
									JOINT LeftHandThumb2
									{
										OFFSET 2.507072 -1.447464 1.447461
										CHANNELS 3 Xrotation Yrotation Zrotation
										JOINT LeftHandThumb3
										{
											OFFSET 2.898338 -1.673355 1.673357
											CHANNELS 3 Xrotation Yrotation Zrotation
											End Site
											{
												OFFSET -0.295959 3.727692 -0.131651
											}
										}
									}
								}
								JOINT LeftHandIndex1
								{
									OFFSET 14.190811 -0.254547 3.840278
									CHANNELS 3 Xrotation Yrotation Zrotation
									JOINT LeftHandIndex2
									{
										OFFSET 3.551727 0.000000 -0.000000
										CHANNELS 3 Xrotation Yrotation Zrotation
										JOINT LeftHandIndex3
										{
											OFFSET 2.894196 0.000000 0.000000
											CHANNELS 3 Xrotation Yrotation Zrotation
											End Site
											{
												OFFSET -1.000603 2.690872 0.366626
											}
										}
									}
								}
								JOINT LeftHandMiddle1
								{
									OFFSET 13.776489 0.000000 0.000000
									CHANNELS 3 Xrotation Yrotation Zrotation
									JOINT LeftHandMiddle2
									{
										OFFSET 3.438232 0.000000 0.000000
										CHANNELS 3 Xrotation Yrotation Zrotation
										JOINT LeftHandMiddle3
										{
											OFFSET 3.691551 0.000000 0.000000
											CHANNELS 3 Xrotation Yrotation Zrotation
											End Site
											{
												OFFSET -1.082298 3.499527 0.457670
											}
										}
									}
								}
								JOINT LeftHandRing1
								{
									OFFSET 13.966164 -0.268127 -3.067488
									CHANNELS 3 Xrotation Yrotation Zrotation
									JOINT LeftHandRing2
									{
										OFFSET 3.162567 0.000000 0.000000
										CHANNELS 3 Xrotation Yrotation Zrotation
										JOINT LeftHandRing3
										{
											OFFSET 3.324348 0.000000 0.000000
											CHANNELS 3 Xrotation Yrotation Zrotation
											End Site
											{
												OFFSET -0.861900 3.184998 0.405154
											}
										}
									}
								}
								JOINT LeftHandPinky1
								{
									OFFSET 13.131393 -0.168503 -5.746925
									CHANNELS 3 Xrotation Yrotation Zrotation
									JOINT LeftHandPinky2
									{
										OFFSET 2.849182 0.000000 0.000000
										CHANNELS 3 Xrotation Yrotation Zrotation
										JOINT LeftHandPinky3
										{
											OFFSET 2.805038 0.000000 0.000000
											CHANNELS 3 Xrotation Yrotation Zrotation
											End Site
											{
												OFFSET -0.882500 2.642609 0.325652
											}
										}
									}
								}
							}
							JOINT Left_Sleeve
							{
								OFFSET 6.592125 -0.646545 0.805568
								CHANNELS 3 Xrotation Yrotation Zrotation
								End Site
								{
									OFFSET -0.000179 20.275787 -0.000000
								}
							}
						}
					}
				}
				JOINT RightShoulder
				{
					OFFSET -5.731700 15.108002 -2.763700
					CHANNELS 3 Xrotation Yrotation Zrotation
					JOINT RightArm
					{
						OFFSET -9.825497 2.506317 -1.597400
						CHANNELS 3 Xrotation Yrotation Zrotation
						JOINT RightForeArm
						{
							OFFSET -21.966242 0.000000 0.000000
							CHANNELS 3 Xrotation Yrotation Zrotation
							JOINT RightHand
							{
								OFFSET -33.879032 0.000000 0.000000
								CHANNELS 3 Xrotation Yrotation Zrotation
								JOINT RightHandThumb1
								{
									OFFSET -6.715286 -2.359680 3.363841
									CHANNELS 3 Xrotation Yrotation Zrotation
									JOINT RightHandThumb2
									{
										OFFSET -2.507072 -1.447464 1.447461
										CHANNELS 3 Xrotation Yrotation Zrotation
										JOINT RightHandThumb3
										{
											OFFSET -2.898338 -1.673355 1.673357
											CHANNELS 3 Xrotation Yrotation Zrotation
											End Site
											{
												OFFSET 0.295959 3.727692 -0.131651
											}
										}
									}
								}
								JOINT RightHandIndex1
								{
									OFFSET -14.190811 -0.254547 3.840278
									CHANNELS 3 Xrotation Yrotation Zrotation
									JOINT RightHandIndex2
									{
										OFFSET -3.551727 0.000000 -0.000000
										CHANNELS 3 Xrotation Yrotation Zrotation
										JOINT RightHandIndex3
										{
											OFFSET -2.894196 0.000000 0.000000
											CHANNELS 3 Xrotation Yrotation Zrotation
											End Site
											{
												OFFSET 1.000603 2.690872 0.366626
											}
										}
									}
								}
								JOINT RightHandMiddle1
								{
									OFFSET -13.776489 0.000000 0.000000
									CHANNELS 3 Xrotation Yrotation Zrotation
									JOINT RightHandMiddle2
									{
										OFFSET -3.438232 0.000000 0.000000
										CHANNELS 3 Xrotation Yrotation Zrotation
										JOINT RightHandMiddle3
										{
											OFFSET -3.691551 0.000000 0.000000
											CHANNELS 3 Xrotation Yrotation Zrotation
											End Site
											{
												OFFSET 1.082298 3.499527 0.457670
											}
										}
									}
								}
								JOINT RightHandRing1
								{
									OFFSET -13.966164 -0.268127 -3.067488
									CHANNELS 3 Xrotation Yrotation Zrotation
									JOINT RightHandRing2
									{
										OFFSET -3.162567 0.000000 0.000000
										CHANNELS 3 Xrotation Yrotation Zrotation
										JOINT RightHandRing3
										{
											OFFSET -3.324348 0.000000 0.000000
											CHANNELS 3 Xrotation Yrotation Zrotation
											End Site
											{
												OFFSET 0.861900 3.184998 0.405154
											}
										}
									}
								}
								JOINT RightHandPinky1
								{
									OFFSET -13.131393 -0.168503 -5.746925
									CHANNELS 3 Xrotation Yrotation Zrotation
									JOINT RightHandPinky2
									{
										OFFSET -2.849182 0.000000 0.000000
										CHANNELS 3 Xrotation Yrotation Zrotation
										JOINT RightHandPinky3
										{
											OFFSET -2.805038 0.000000 0.000000
											CHANNELS 3 Xrotation Yrotation Zrotation
											End Site
											{
												OFFSET 0.882500 2.642609 0.325652
											}
										}
									}
								}
							}
							JOINT Right_Sleeve
							{
								OFFSET -6.592125 -0.646545 0.805568
								CHANNELS 3 Xrotation Yrotation Zrotation
								End Site
								{
									OFFSET 0.000179 20.275787 -0.000000
								}
							}
						}
					}
				}
				JOINT Bind_Right_JacketString
				{
					OFFSET -3.534800 11.969597 7.200700
					CHANNELS 3 Xrotation Yrotation Zrotation
					JOINT Bind_Right_JacketString1
					{
						OFFSET -0.319900 -6.102600 2.794100
						CHANNELS 3 Xrotation Yrotation Zrotation
						End Site
						{
							OFFSET 0.000000 6.719452 0.000000
						}
					}
				}
				JOINT Bind_Left_JacketString
				{
					OFFSET 2.904800 11.969597 7.200700
					CHANNELS 3 Xrotation Yrotation Zrotation
					JOINT Bind_Left_JacketString1
					{
						OFFSET 0.364800 -5.904503 3.186800
						CHANNELS 3 Xrotation Yrotation Zrotation
						End Site
						{
							OFFSET 0.000000 6.719513 0.000000
						}
					}
				}
				JOINT HairE
				{
					OFFSET 5.915200 17.612701 -11.592200
					CHANNELS 3 Xrotation Yrotation Zrotation
					JOINT HairE1
					{
						OFFSET 0.289200 -7.171898 -1.284500
						CHANNELS 3 Xrotation Yrotation Zrotation
						End Site
						{
							OFFSET 0.000000 7.291756 0.000000
						}
					}
				}
				JOINT HairF
				{
					OFFSET -0.864800 17.612701 -11.592200
					CHANNELS 3 Xrotation Yrotation Zrotation
					JOINT HairF1
					{
						OFFSET 0.000000 -14.087097 -2.127501
						CHANNELS 3 Xrotation Yrotation Zrotation
						End Site
						{
							OFFSET 0.000000 14.246841 0.000000
						}
					}
				}
				JOINT HairG
				{
					OFFSET -8.087700 17.612701 -11.592200
					CHANNELS 3 Xrotation Yrotation Zrotation
					JOINT HairG1
					{
						OFFSET -0.293600 -6.081398 -0.910100
						CHANNELS 3 Xrotation Yrotation Zrotation
						End Site
						{
							OFFSET 0.000000 6.156120 0.000000
						}
					}
				}
			}
		}
	}
	JOINT Pouch
	{
		OFFSET 0.000000 4.394501 10.847300
		CHANNELS 3 Xrotation Yrotation Zrotation
		End Site
		{
			OFFSET 0.000000 21.880577 0.000000
		}
	}
	JOINT Bag
	{
		OFFSET -13.229000 4.813004 -0.593300
		CHANNELS 3 Xrotation Yrotation Zrotation
		End Site
		{
			OFFSET 0.000000 21.880577 0.000000
		}
	}
	JOINT OccupyGuyFacialAnim_Joint
	{
		OFFSET 1.000000 -70.206398 -1.655000
		CHANNELS 3 Xrotation Yrotation Zrotation
		End Site
		{
			OFFSET 0.000000 21.880577 0.000000
		}
	}
}
MOTION
Frames: 5
Frame Time: 0.033333
1.181103 30.088867 42.621387 8.758550 -33.816977 -3.850933 -0.000000 0.000001 -0.000001 -114.677811 -21.489703 42.746216 90.181501 -9.671881 -6.974030 21.992058 -9.965972 5.869176 0.000000 -0.000000 -0.000000 -0.000002 -0.000000 0.000001 -51.101556 10.193780 15.863592 147.073111 -20.645872 7.843089 8.101549 2.861602 7.254551 -0.000000 -0.000001 0.000000 -0.000002 -0.000001 -0.000000 24.240712 -5.538202 -5.153482 5.564632 0.094994 3.555256 -2.053845 -0.632698 4.108059 6.539288 5.999994 -0.403251 -2.422153 29.962394 -20.255653 0.000003 -0.000000 0.000000 0.000003 -0.000000 0.000000 0.000003 -0.000000 0.000000 0.000003 -0.000000 0.000000 0.000003 -0.000000 0.000000 0.000003 -0.000000 0.000000 0.000003 -0.000000 0.000000 0.000003 -0.000000 0.000000 0.000003 -0.000000 0.000000 -0.775016 -29.665240 -0.553474 -34.498889 15.680479 -4.061725 -0.000010 -134.903258 -0.000007 -19.359099 40.045129 -5.590580 17.315143 -14.502232 24.126639 -8.584780 37.856689 -11.095067 0.000003 0.000003 0.000004 -0.304599 3.300116 -30.142154 0.805824 2.967060 -30.383605 0.000001 -0.000000 -0.000000 -0.063175 4.488831 -42.348788 1.969384 4.381414 -48.389742 0.000002 -0.000002 -0.000001 -0.213074 5.362254 -57.037697 1.677687 4.104590 -44.448481 -0.000001 0.000001 -0.000002 2.227857 7.014294 -61.644930 1.876825 4.297674 -47.166513 -0.000003 0.000005 0.000004 0.000001 0.000001 -0.000000 2.134906 22.858456 -0.187614 -11.393947 51.807275 26.373746 0.000355 97.843396 -0.000365 -37.151024 -14.898347 -5.802949 61.334382 30.777468 -12.521087 -16.865171 -36.773544 -14.662294 -0.000002 0.000000 -0.000000 -2.520353 4.938617 18.299311 1.715299 -3.611909 50.794321 -0.000001 -0.000000 0.000000 9.149421 -8.657911 71.635434 6.185903 -4.399627 109.182377 -0.000001 -0.000001 -0.000001 5.893626 -7.437567 74.427315 4.024103 -4.614046 82.178917 -0.000000 -0.000003 -0.000003 7.653980 -7.531547 79.885100 1.640489 -3.549729 49.596691 -0.000001 -0.000001 0.000002 -0.000002 -0.000003 -0.000004 -0.000004 0.000000 0.000002 -0.000001 -0.000001 -0.000000 -0.000004 0.000000 0.000001 -0.000004 0.000000 0.000001 -0.000004 0.000000 0.000002 -0.000001 -0.000001 -0.000000 -0.000004 0.000000 0.000001 -0.000004 0.000000 0.000001 -0.000004 0.000000 0.000002 -0.000001 -0.000001 -0.000000 -0.000000 0.000001 -0.000001 -0.000000 0.000001 -0.000001 -0.000000 0.000001 -0.000001 
1.152236 29.638008 42.373318 9.664410 -33.610937 -4.559099 0.000000 0.000001 -0.000000 -117.058391 -24.250522 41.607077 94.865098 -9.732837 -6.245307 19.079109 -8.912920 4.935921 -0.000000 -0.000001 -0.000000 -0.000002 0.000001 -0.000000 -52.302857 8.720694 16.697448 147.974464 -20.387765 7.879567 7.392996 1.879184 7.948358 0.000002 -0.000000 0.000000 -0.000006 -0.000001 0.000000 25.021138 -6.577531 -5.177640 5.578054 -0.467083 2.949839 -0.766949 -1.083396 3.415743 6.698408 6.037870 -0.573264 -2.662217 28.271439 -21.060116 -0.000002 -0.000000 0.000000 -0.000002 -0.000000 0.000000 -0.000002 -0.000000 -0.000000 -0.000002 -0.000000 0.000000 0.000000 0.000000 -0.000000 -0.000002 -0.000000 0.000000 0.000000 0.000000 -0.000000 -0.000002 -0.000000 0.000000 -0.000002 -0.000000 0.000000 -1.291819 -28.614065 -0.629037 -31.974991 12.692532 -5.731198 0.000015 -134.336338 0.000014 -25.077316 42.253866 -1.495828 17.316138 -14.501747 24.130358 -8.841152 38.738197 -11.451361 -0.000000 -0.000001 0.000002 -0.301612 3.305298 -30.141720 0.805846 2.967060 -30.383618 -0.000002 0.000001 -0.000004 -0.062441 4.489650 -42.348713 1.969398 4.381420 -48.389749 -0.000000 0.000001 -0.000001 -0.217810 5.359198 -57.037817 1.677650 4.104565 -44.448436 -0.000003 0.000002 0.000001 2.227848 7.014304 -61.644930 1.876823 4.297666 -47.166489 0.000001 0.000000 0.000001 0.000001 0.000000 0.000000 2.092082 22.167978 -0.521954 -12.814974 53.163474 27.395639 0.000158 97.025952 -0.000190 -35.714246 -14.814726 -5.526097 61.334375 30.777468 -12.521078 -16.865177 -36.773544 -14.662287 0.000001 -0.000001 -0.000002 -2.520353 4.938613 18.299308 1.715302 -3.611914 50.794321 -0.000003 -0.000000 -0.000002 9.149413 -8.657911 71.635434 6.185905 -4.399626 109.182370 -0.000003 -0.000001 -0.000006 5.893622 -7.437567 74.427321 4.024106 -4.614048 82.178917 -0.000001 -0.000001 -0.000000 7.653975 -7.531553 79.885093 1.640489 -3.549734 49.596691 -0.000000 0.000002 0.000001 -0.000003 -0.000002 -0.000002 -0.000000 0.000002 0.000001 -0.000000 0.000000 -0.000001 -0.000000 0.000002 0.000001 -0.000000 0.000002 0.000001 -0.000000 0.000002 0.000001 -0.000000 0.000000 -0.000001 -0.000000 0.000002 0.000001 -0.000000 0.000002 0.000001 -0.000000 0.000002 0.000001 -0.000000 0.000000 -0.000001 0.000000 0.000001 -0.000000 0.000000 0.000001 -0.000000 0.000000 0.000001 -0.000000 
1.096250 29.376396 42.256077 10.261966 -33.002163 -5.094700 -0.000000 -0.000001 0.000001 -118.897775 -25.913666 40.368218 98.461289 -9.736331 -5.677940 16.718194 -8.147115 4.524193 0.000000 -0.000000 0.000000 -0.000000 0.000000 -0.000000 -52.730157 7.880216 16.995338 148.594700 -19.801622 8.261553 6.423997 0.843718 8.527355 -0.000001 -0.000001 0.000002 -0.000003 -0.000000 -0.000000 25.425451 -7.732061 -5.127880 5.514034 -1.074073 2.351226 0.477097 -1.577817 2.739090 6.860533 6.035652 -0.737368 -2.166778 26.309667 -22.042726 -0.000000 0.000000 0.000000 -0.000000 0.000000 0.000000 -0.000000 0.000000 0.000000 -0.000000 0.000000 0.000000 -0.000002 -0.000001 -0.000000 -0.000000 0.000000 0.000000 -0.000002 -0.000001 -0.000000 -0.000000 0.000000 0.000000 -0.000000 0.000000 0.000000 -1.423469 -28.498109 -0.306923 -30.143162 11.189387 -6.133619 0.000009 -134.080029 -0.000012 -29.543956 43.237522 1.701550 17.317000 -14.501325 24.133633 -9.101692 39.640379 -11.804712 0.000001 -0.000001 -0.000001 -0.299850 3.308352 -30.141464 0.805854 2.967056 -30.383601 0.000002 -0.000002 -0.000002 -0.061917 4.490200 -42.348679 1.969358 4.381415 -48.389739 0.000002 -0.000003 -0.000003 -0.220536 5.357407 -57.037913 1.677654 4.104563 -44.448443 0.000000 -0.000002 -0.000000 2.227835 7.014295 -61.644909 1.876819 4.297676 -47.166500 0.000001 0.000000 -0.000001 -0.000002 0.000000 -0.000001 2.014094 21.456546 -0.581239 -13.625483 54.084819 28.408119 -0.000357 96.430612 0.000402 -34.344882 -14.817846 -5.288759 61.334375 30.777468 -12.521079 -16.865178 -36.773537 -14.662294 0.000001 -0.000001 -0.000001 -2.520351 4.938610 18.299311 1.715299 -3.611913 50.794321 -0.000002 -0.000001 0.000000 9.149420 -8.657910 71.635434 6.185900 -4.399627 109.182377 -0.000000 0.000001 0.000003 5.893624 -7.437567 74.427321 4.024102 -4.614047 82.178917 0.000003 -0.000003 -0.000003 7.653981 -7.531547 79.885100 1.640494 -3.549734 49.596691 -0.000000 0.000000 0.000002 -0.000001 -0.000002 -0.000002 -0.000001 -0.000003 0.000002 0.000001 0.000000 -0.000001 -0.000001 -0.000003 0.000001 -0.000001 -0.000003 0.000001 -0.000001 -0.000003 0.000002 0.000001 0.000000 -0.000001 -0.000001 -0.000003 0.000001 -0.000001 -0.000003 0.000001 -0.000001 -0.000003 0.000002 0.000001 0.000000 -0.000001 -0.000000 -0.000001 0.000001 -0.000000 -0.000001 0.000001 -0.000000 -0.000001 0.000001 
1.031574 29.225395 42.151138 10.761963 -32.353155 -5.541824 -0.000000 -0.000001 -0.000000 -120.172575 -26.708014 39.244949 99.669979 -9.733890 -5.470690 16.068143 -7.843445 4.380897 -0.000000 0.000000 0.000000 -0.000001 0.000000 0.000001 -52.965600 6.927454 17.152924 149.003227 -19.468500 8.593542 5.561132 -0.217287 8.811809 -0.000002 -0.000000 0.000001 -0.000003 -0.000000 -0.000000 25.712737 -8.843106 -5.085868 5.422962 -1.661765 1.758766 1.666844 -2.053766 2.084198 7.011637 5.992403 -0.901757 -1.553824 24.300811 -23.005564 0.000001 -0.000001 0.000000 0.000001 -0.000001 0.000000 0.000001 -0.000001 0.000000 0.000001 -0.000001 -0.000000 0.000001 0.000000 0.000001 0.000001 -0.000001 -0.000000 0.000001 0.000000 0.000001 0.000001 -0.000001 0.000000 0.000001 -0.000001 0.000000 -1.400228 -28.775689 0.169620 -28.553020 10.336819 -6.045443 0.000008 -133.958861 0.000003 -33.469812 43.712715 4.475133 17.317687 -14.500975 24.136359 -9.366306 40.561792 -12.153852 0.000003 0.000001 0.000000 -0.298806 3.310147 -30.141311 0.805838 2.967050 -30.383595 -0.000000 -0.000001 0.000003 -0.061604 4.490587 -42.348645 1.969394 4.381420 -48.389749 0.000000 0.000000 -0.000003 -0.222366 5.356248 -57.037957 1.677659 4.104584 -44.448474 0.000000 0.000002 -0.000001 2.227844 7.014294 -61.644916 1.876826 4.297674 -47.166507 -0.000002 -0.000001 0.000003 0.000002 0.000000 -0.000001 1.932776 20.719128 -0.615801 -14.300140 54.840217 29.427389 0.000556 95.921756 -0.000567 -33.216812 -14.806325 -5.116197 61.334375 30.777464 -12.521086 -16.865178 -36.773540 -14.662299 0.000004 -0.000001 -0.000001 -2.520352 4.938614 18.299308 1.715299 -3.611913 50.794321 -0.000001 0.000001 -0.000001 9.149419 -8.657912 71.635434 6.185905 -4.399621 109.182377 -0.000002 -0.000000 -0.000001 5.893625 -7.437565 74.427315 4.024103 -4.614045 82.178917 0.000001 -0.000003 -0.000001 7.653978 -7.531548 79.885100 1.640488 -3.549736 49.596691 -0.000000 0.000001 0.000001 -0.000001 0.000001 0.000003 -0.000001 0.000002 -0.000000 -0.000001 0.000000 -0.000001 -0.000001 0.000002 0.000001 -0.000001 0.000002 0.000001 -0.000001 0.000002 -0.000000 -0.000001 0.000000 -0.000001 -0.000001 0.000002 0.000001 -0.000001 0.000002 0.000001 -0.000001 0.000002 -0.000000 -0.000001 0.000000 -0.000001 -0.000000 -0.000001 -0.000000 -0.000000 -0.000001 -0.000000 -0.000000 -0.000001 -0.000000 
0.963969 29.151146 42.053905 11.186649 -31.728483 -5.901615 0.000000 0.000002 -0.000001 -121.024668 -26.906332 38.312157 99.279846 -9.738156 -5.505537 16.570145 -7.869612 4.393807 -0.000000 -0.000000 0.000000 -0.000002 0.000000 0.000001 -52.887698 5.306953 17.223247 149.245685 -19.977151 8.598540 4.567193 -1.311153 8.781149 -0.000002 0.000001 0.000002 -0.000002 -0.000000 -0.000001 25.928233 -9.869824 -5.080541 5.324498 -2.203308 1.194912 2.759732 -2.489901 1.474489 7.151931 5.904549 -1.067415 -0.909502 22.293044 -23.915817 -0.000000 -0.000002 -0.000000 -0.000000 -0.000002 -0.000000 -0.000000 -0.000002 -0.000000 -0.000000 -0.000002 -0.000000 0.000001 0.000000 0.000000 -0.000000 -0.000002 -0.000000 0.000001 0.000000 0.000000 -0.000000 -0.000002 -0.000000 -0.000000 -0.000002 -0.000000 -1.244660 -29.314223 0.761477 -27.132706 9.967292 -5.649436 -0.000002 -133.916568 -0.000009 -36.921240 43.814134 6.837493 17.318076 -14.500845 24.138032 -9.634770 41.500947 -12.497657 -0.000001 0.000001 -0.000001 -0.298095 3.311380 -30.141201 0.805863 2.967056 -30.383608 -0.000000 0.000002 0.000002 -0.061369 4.490829 -42.348635 1.969391 4.381432 -48.389756 -0.000000 -0.000003 0.000000 -0.223727 5.355363 -57.038005 1.677657 4.104585 -44.448470 -0.000001 -0.000002 -0.000002 2.227851 7.014288 -61.644916 1.876803 4.297674 -47.166524 0.000001 -0.000001 0.000003 -0.000001 0.000001 -0.000000 1.849688 19.964629 -0.628850 -14.837770 55.444631 30.430559 -0.000031 95.491796 0.000031 -32.308212 -14.783205 -5.003740 61.334375 30.777471 -12.521084 -16.865177 -36.773537 -14.662290 0.000003 -0.000002 0.000001 -2.520353 4.938617 18.299311 1.715300 -3.611911 50.794321 0.000000 0.000002 0.000001 9.149417 -8.657909 71.635434 6.185901 -4.399625 109.182377 -0.000003 -0.000001 -0.000001 5.893624 -7.437565 74.427315 4.024104 -4.614046 82.178917 -0.000001 -0.000001 -0.000001 7.653976 -7.531546 79.885100 1.640490 -3.549730 49.596691 -0.000000 0.000000 0.000001 0.000000 -0.000000 0.000001 -0.000000 0.000001 0.000002 -0.000000 0.000001 0.000001 -0.000000 0.000001 0.000003 -0.000000 0.000001 0.000003 -0.000000 0.000001 0.000002 -0.000000 0.000001 0.000002 -0.000000 0.000001 0.000003 -0.000000 0.000001 0.000003 -0.000000 0.000001 0.000002 -0.000000 0.000001 0.000002 0.000000 0.000002 -0.000001 0.000000 0.000002 -0.000001 0.000000 0.000002 -0.000001 
